Coordinates
version=1
nRows=22
nColumns=24
inDegrees=yes

Units are S.I. units (second, meters, Newtons, ...)
Angles are in degrees.

endheader
time	pelvis_tilt	pelvis_list	pelvis_rotation	pelvis_tx	pelvis_ty	pelvis_tz	hip_flexion_r	hip_adduction_r	hip_rotation_r	knee_angle_r	ankle_angle_r	subtalar_angle_r	mtp_angle_r	hip_flexion_l	hip_adduction_l	hip_rotation_l	knee_angle_l	ankle_angle_l	subtalar_angle_l	mtp_angle_l	lumbar_extension	lumbar_bending	lumbar_rotation
      5.19000000	     -8.85515485	     -2.89251957	      6.58864687	     -1.19664322	     -0.03582937	      2.03304757	     33.69173777	      0.01426148	    -15.62292854	    -11.79592810	      7.42770677	      7.11840396	    -40.41175612	     -5.50087576	     -3.35564313	     -5.28233587	    -19.22383473	     10.10632806	      7.77003819	      9.45082402	      3.29668184	      2.48104328	     -7.91068811
      5.20000000	     -8.95559365	     -3.57088205	      6.59239863	     -1.18158248	     -0.03698054	      2.03486297	     33.77691885	      0.71323452	    -15.58145305	    -12.91279163	      5.59170622	      5.45756713	    -42.33510951	     -5.13831503	     -4.50321723	     -5.33144949	    -21.11496609	      8.50997961	      8.08631228	     12.67065313	      3.74100807	      3.16318091	     -7.96023396
      5.21000000	     -9.07148128	     -4.45699512	      6.55894968	     -1.16658050	     -0.03774208	      2.03671431	     33.87455360	      1.64279498	    -15.65719053	    -13.94313119	      3.62250753	      4.05908684	    -42.91764500	     -4.49668486	     -5.90289408	     -5.50798642	    -23.45857173	      7.18622304	      8.71103577	     13.07532354	      4.21201214	      4.06997008	     -8.05339037
      5.22000000	     -9.35803734	     -5.26081909	      6.21035996	     -1.15159406	     -0.03828627	      2.03886284	     34.27823263	      2.65297405	    -15.36740862	    -15.20278175	      2.13194014	      2.91259152	    -43.93396208	     -3.61691205	     -7.16213764	     -5.97823324	    -25.74855615	      4.53353755	      8.64295967	     17.16674363	      4.82080942	      4.92469341	     -7.80240510
      5.23000000	     -9.54900328	     -6.10438594	      5.89888152	     -1.13664646	     -0.03841320	      2.04093277	     34.58489192	      3.70576037	    -15.15904278	    -16.54687696	      1.10347836	      2.06323087	    -44.32841856	     -2.60907068	     -8.49305833	     -6.43416125	    -28.32544012	      1.60232071	      8.42552526	     20.15139481	      5.32236187	      5.83381024	     -7.65604184
      5.24000000	     -9.72191507	     -6.87913678	      5.60846118	     -1.12175362	     -0.03834513	      2.04298397	     34.83267325	      4.70788568	    -14.93007843	    -17.93139525	      0.64628343	      1.35245082	    -44.70403535	     -1.42226691	     -9.75244245	     -6.81847309	    -31.05680345	     -1.96426104	      7.73708007	     23.69677528	      5.78892093	      6.67574127	     -7.62849423
      5.25000000	     -9.90073561	     -7.62295271	      5.29890632	     -1.10694877	     -0.03819662	      2.04522305	     34.94970805	      5.74701195	    -14.68793805	    -19.13127903	      0.55899380	      0.60198664	    -45.30532121	     -0.03582179	    -10.99356717	     -7.13504251	    -33.95656990	     -5.95922621	      6.64665364	     27.32348201	      6.23993321	      7.45526026	     -7.55883099
      5.26000000	    -10.05456469	     -8.43135844	      4.98098966	     -1.09232467	     -0.03804506	      2.04759959	     34.85394627	      6.92107182	    -14.41433713	    -20.01502831	      0.74208658	     -0.20179300	    -46.21445404	      1.51519888	    -12.30755027	     -7.29689882	    -37.02640361	    -10.14116091	      5.14252870	     30.81226256	      6.64540939	      8.28837019	     -7.53146722
      5.27000000	    -10.23499324	     -9.33912319	      4.62663532	     -1.07795782	     -0.03790218	      2.05014734	     34.58607793	      8.25928553	    -14.17477605	    -20.51415082	      1.02511502	     -0.97794621	    -47.38546022	      3.26400254	    -13.71931668	     -7.27927791	    -40.24711164	    -14.27175367	      3.37144086	     33.48268732	      7.05067291	      9.20303634	     -7.49362409
      5.28000000	    -10.41738219	    -10.30318645	      4.23358143	     -1.06387643	     -0.03772738	      2.05268587	     34.13660114	      9.70004961	    -13.92339479	    -20.67520047	      1.43721619	     -1.62165603	    -48.82727248	      5.12148754	    -15.11837119	     -7.00063812	    -43.50316622	    -18.13852821	      1.36043719	     35.16251777	      7.41689067	     10.18810638	     -7.35212181
      5.29000000	    -10.62711658	    -11.33030794	      3.84934218	     -1.05007955	     -0.03749225	      2.05517665	     33.56597099	     11.19546013	    -13.82502723	    -20.53198312	      1.72254972	     -2.14657772	    -49.60517889	      7.12383918	    -16.52051599	     -6.49230580	    -46.77324511	    -21.26303360	     -0.41600117	     35.16488033	      7.77886129	     11.23474913	     -7.22106451
      5.30000000	    -10.80541406	    -12.07274944	      3.37004254	     -1.03653209	     -0.03691135	      2.05759487	     32.84037255	     12.41695580	    -13.69816039	    -20.30214913	      2.53634024	     -2.14346869	    -52.77660707	      9.00756267	    -17.50887094	     -5.98994050	    -49.67902009	    -24.08037981	     -2.30181887	     35.54612625	      8.02294846	     12.02257343	     -6.88620935
      5.31000000	    -10.83687876	    -12.83843849	      3.12881920	     -1.02316335	     -0.03601638	      2.05967967	     31.86051654	     13.54331632	    -13.88915998	    -19.86927578	      3.00986093	     -2.02566071	    -53.32546167	     10.85910323	    -18.41004542	     -5.12162883	    -52.43306062	    -25.58084222	     -3.46035817	     35.21432941	      8.13619358	     12.80408383	     -6.73939971
      5.32000000	    -10.80299456	    -13.30379154	      2.86977019	     -1.00998766	     -0.03473866	      2.06164637	     30.72174881	     14.36565749	    -13.93058426	    -19.39275435	      4.06461271	     -1.56909740	    -57.18690525	     12.55037827	    -18.87609471	     -4.28267967	    -54.77027692	    -26.36386970	     -4.38424227	     36.11741715	      8.11867017	     13.29331466	     -6.42133234
      5.33000000	    -10.73956809	    -13.63979922	      2.77317970	     -0.99703855	     -0.03323514	      2.06342421	     29.49868642	     15.01661768	    -13.94149738	    -18.82089250	      4.60538062	     -1.28006969	    -57.45089074	     14.29169502	    -19.06571150	     -3.22703972	    -56.88282901	    -26.05944407	     -4.70747122	     36.70721418	      8.07297570	     13.61177637	     -6.17799111
      5.34000000	    -10.68343501	    -13.84414488	      2.73439147	     -0.98424931	     -0.03159533	      2.06505163	     28.22644914	     15.51555395	    -13.82540020	    -18.17950567	      5.31678741	     -0.94380344	    -58.70574848	     16.02173890	    -19.01826776	     -2.17421087	    -58.59322965	    -25.45398435	     -5.03591515	     39.32265472	      8.02411270	     13.78696014	     -5.96717822
      5.35000000	    -10.43075337	    -13.90987269	      2.81526042	     -0.97163341	     -0.02960004	      2.06656146	     26.66361928	     15.90290149	    -13.49147440	    -17.38751851	      5.89538733	     -0.83053830	    -59.55740824	     17.54285829	    -18.71819213	     -1.04919474	    -60.01337106	    -24.20779657	     -4.87481984	     41.13637185	      7.75479951	     13.79637641	     -5.75354168
      5.36000000	    -10.25535753	    -13.90076386	      2.81167450	     -0.95910466	     -0.02769438	      2.06805144	     25.14331060	     16.23737995	    -13.06032222	    -16.56469862	      6.37734132	     -0.68759445	    -59.62874436	     19.09902903	    -18.29832458	     -0.08226058	    -61.20335984	    -22.50626278	     -4.56279043	     41.85700543	      7.53913061	     13.74709987	     -5.36481429
      5.37000000	     -9.97643587	    -13.89088788	      3.05078298	     -0.94676402	     -0.02572001	      2.06920619	     23.48530593	     16.49891267	    -12.76574265	    -15.58195056	      6.74686119	     -0.69698271	    -60.02503354	     20.61101717	    -17.75137693	      1.04075527	    -62.05994057	    -20.94075210	     -4.58154998	     43.55473677	      7.24659430	     13.66466446	     -5.26317711
      5.38000000	     -9.80395768	    -13.75314637	      3.12389986	     -0.93449664	     -0.02394250	      2.07046646	     21.93306654	     16.66009966	    -12.42422895	    -14.65833261	      7.13071768	     -0.56200643	    -60.06178609	     22.10798007	    -17.07076328	      1.90989912	    -62.68810094	    -18.98471000	     -4.46083540	     44.01797738	      7.01693443	     13.47188025	     -4.92342742
      5.39000000	     -9.58869534	    -13.56425836	      3.31499704	     -0.92230873	     -0.02221594	      2.07153692	     20.32685391	     16.73144882	    -12.16133638	    -13.67875875	      7.47757700	     -0.47264340	    -60.10962317	     23.52613288	    -16.25483680	      2.78269222	    -63.02265912	    -17.03954485	     -4.58467732	     44.24364496	      6.75832776	     13.21681699	     -4.71892073
      5.40000000	     -9.26981868	    -13.26502709	      3.54179198	     -0.91015135	     -0.02042569	      2.07245250	     18.57735335	     16.68022018	    -11.89563650	    -12.66155325	      7.86838752	     -0.30965985	    -60.36007822	     24.71443351	    -15.28825992	      3.50724892	    -63.04710897	    -15.06558102	     -4.94498667	     43.50237334	      6.37944632	     12.85878048	     -4.53931812
